<?xml version="1.0" encoding="utf-8"?>
<!-- Generator: Adobe Illustrator 22.0.0, SVG Export Plug-In . SVG Version: 6.00 Build 0)  -->
<svg version="1.1" id="Layer_1" xmlns="http://www.w3.org/2000/svg" xmlns:xlink="http://www.w3.org/1999/xlink" x="0px" y="0px"
	 viewBox="0 0 500 500" style="enable-background:new 0 0 500 500;" xml:space="preserve">
<style type="text/css">
	.st0{display:none;}
	.st1{display:inline;fill:#3CAA35;}
	.st2{display:none;fill:#010202;}
	.st3{display:inline;}
	.st4{fill:#010202;}
	.st5{clip-path:url(#SVGID_2_);}
</style>
<g id="Layer_2_1_" class="st0">
	<rect x="-118.9" y="-102.4" class="st1" width="786" height="697.5"/>
</g>
<g id="Layer_1_1_">
	<path id="f_1_" class="st2" d="M288.7,500V271.9h76.6l11.5-88.9h-88v-56.7c0-25.7,7.1-43.3,44.1-43.3l47.1,0V3.5
		C371.7,2.4,343.7,0,311.2,0c-67.9,0-114.3,41.4-114.3,117.5V183h-76.8v88.9h76.8V500L288.7,500L288.7,500z"/>
	<polygon id="black_1_" class="st2" points="420.4,91.6 420.4,0.9 420.4,0.9 329.7,0.9 320.6,10 277.8,91.6 264.4,100.7 
		111.5,100.7 111.5,225.3 195.5,225.3 203,234.4 111.5,409.2 111.5,500 111.5,500 202.3,500 211.3,490.9 254.2,409.3 267.6,400.2 
		420.4,400.2 420.4,275.5 336.4,275.5 329,266.4 	"/>
	<g class="st0">
		<g class="st3">
			<path class="st4" d="M249.7-0.4C111.4-0.4-0.7,111.7-0.7,250c0,106.1,66,196.7,159.2,233.2c-2.2-19.8-4.2-50.2,0.9-71.8
				c4.5-19.5,29.4-124.5,29.4-124.5s-7.5-15-7.5-37.2c0-34.8,20.2-60.8,45.3-60.8c21.4,0,31.7,16,31.7,35.3
				c0,21.5-13.7,53.6-20.7,83.4c-5.9,24.9,12.5,45.3,37.1,45.3c44.5,0,78.7-46.9,78.7-114.7c0-60-43.1-101.9-104.6-101.9
				c-71.3,0-113.1,53.4-113.1,108.7c0,21.5,8.3,44.6,18.6,57.1c2,2.5,2.3,4.7,1.7,7.2c-1.9,7.9-6.1,24.9-7,28.4
				c-1.1,4.6-3.6,5.6-8.4,3.3c-31.3-14.6-50.8-60.3-50.8-97c0-79,57.4-151.5,165.5-151.5c86.9,0,154.4,61.9,154.4,144.6
				c0,86.3-54.4,155.8-129.9,155.8c-25.4,0-49.2-13.2-57.4-28.8c0,0-12.6,47.8-15.6,59.5c-5.7,21.8-20.9,49-31.1,65.6
				c23.4,7.3,48.3,11.2,74.1,11.2c138.3,0,250.4-112.1,250.4-250.4C500.1,111.7,388-0.4,249.7-0.4z"/>
		</g>
	</g>
	<path class="st2" d="M499.8,133.6c-2.2,48.8-36.2,115.5-102,200.3c-68,88.5-125.5,132.8-172.5,132.8c-29.1,0-53.8-26.9-74-80.9
		c-13.5-49.4-26.9-98.8-40.4-148.3c-15-53.9-31-80.9-48.2-80.9c-3.7,0-16.8,7.9-39.2,23.6L0,149.9c24.7-21.7,49-43.4,73-65.2
		c32.9-28.5,57.6-43.5,74.1-45c38.9-3.7,62.9,22.9,71.9,80c9.7,61.6,16.4,99.8,20.2,114.8c11.2,51.1,23.6,76.6,37,76.6
		c10.5,0,26.2-16.6,47.1-49.7c20.9-33.1,32.2-58.3,33.7-75.6c3-28.6-8.2-42.9-33.7-42.9c-12,0-24.3,2.8-37,8.2
		c24.6-80.6,71.5-119.8,140.8-117.6C478.5,34.9,502.7,68.3,499.8,133.6z"/>
</g>
<g>
	<defs>
		<path id="SVGID_1_" d="M73.7,64.7h335.8c7.4,14.2,22.2,24,39.4,24c24.5,0,44.4-19.9,44.4-44.4c0-24.5-19.9-44.4-44.4-44.4
			c-18.6,0-34.5,11.5-41.1,27.7h-334c-32.5,0-57.9,24.6-57.9,56v357.4c0,31.9,26.5,58.9,57.9,58.9h357.4c31.4,0,57-26.4,57-58.9
			v-212c0-31.9-25.6-57.9-57-57.9h-212c-32.4,0-59.7,26.5-59.7,57.9v66.6c0,30.9,26.8,56.1,59.7,56.1h74
			c6.6,16.2,22.5,27.7,41.1,27.7c24.5,0,44.4-19.9,44.4-44.4c0-24.5-19.9-44.4-44.4-44.4c-17.1,0-32,9.8-39.4,24h-75.7
			c-10.9,0-22.7-7.3-22.7-19v-66.6c0-10.9,10.8-20.9,22.7-20.9h212c11.2,0,20,9.2,20,20.9v212c0,11.8-9.1,21.8-20,21.8H73.7
			c-11.1,0-20.8-10.2-20.8-21.8V83.7C52.8,72.9,61.8,64.7,73.7,64.7z M448.8,23.2c11.7,0,21.2,9.5,21.2,21.2
			c0,11.7-9.5,21.2-21.2,21.2c-11.7,0-21.2-9.5-21.2-21.2C427.6,32.6,437.1,23.2,448.8,23.2z M334.2,313.9
			c11.7,0,21.2,9.5,21.2,21.2c0,11.7-9.5,21.2-21.2,21.2c-11.7,0-21.2-9.5-21.2-21.2C313,323.4,322.5,313.9,334.2,313.9z"/>
	</defs>
	<use xlink:href="#SVGID_1_"  style="overflow:visible;"/>
	<clipPath id="SVGID_2_">
		<use xlink:href="#SVGID_1_"  style="overflow:visible;"/>
	</clipPath>
	<rect x="1.3" y="10.2" class="st5" width="70.8" height="75.6"/>
	<rect x="1.3" y="439.7" class="st5" width="70.8" height="75.6"/>
	<rect x="429.7" y="439.7" class="st5" width="70.8" height="75.6"/>
	<rect x="429.7" y="155" class="st5" width="70.8" height="75.6"/>
	<rect x="149.6" y="155" class="st5" width="70.9" height="75.6"/>
	<rect x="149.6" y="294.3" class="st5" width="70.9" height="75.6"/>
	<rect x="1.3" y="84.3" class="st5" width="69.5" height="356.8"/>
	<rect x="70.8" y="441.1" class="st5" width="360.3" height="74.1"/>
	<rect x="431.1" y="229.1" class="st5" width="69.5" height="212"/>
	<rect x="219.1" y="155" class="st5" width="212" height="74.1"/>
	<rect x="149.6" y="229.1" class="st5" width="69.5" height="66.6"/>
	<polygon class="st5" points="395.8,-5.1 395.8,10.2 70.8,10.2 70.8,84.3 395.8,84.3 395.8,99.6 500.5,99.6 500.5,-5.1 	"/>
	<polygon class="st5" points="282.6,283 282.6,295.8 219.1,295.8 219.1,369.8 282.6,369.8 282.6,387.2 386.8,387.2 386.8,283 	"/>
</g>
</svg>
