<svg id="Layer_1" data-name="Layer 1" xmlns="http://www.w3.org/2000/svg" viewBox="0 0 530.83 695.27"><defs><style>.cls-1{fill:none;stroke:#ffeb00;stroke-miterlimit:10;stroke-width:4px;}.cls-2{fill:#12100b;opacity:0.25;}</style></defs><title>tumblr_logo_icon</title><path class="cls-1" d="M388.9,132.41" transform="translate(-184.1 -102.75)"/><path class="cls-2" d="M553.14,604a111.49,111.49,0,0,0,25.8-3.32V453.33H690.5V324.83H621.92V396H510.36v162.4C511,599.26,534.13,604,553.14,604ZM579.4,173.46H510.82v94H579.4Zm99.85,472.46a131.05,131.05,0,0,1-44.32,14.53l11.42,33.84c-20.48,27-71.44,45.52-118.09,46.32-1.58,0-3.14,0-4.7,0h0c-32.49,0-59.52-5.71-81.91-15.26,26.2,40,72.74,72.64,150.49,72.64h0c1.56,0,3.11,0,4.7,0,46.64-.79,97.61-19.36,118.09-46.32Z" transform="translate(-184.1 -102.75)"/><path class="cls-1" d="M280,282.47" transform="translate(-184.1 -102.75)"/><path d="M502.52,753.62c65.13,0,129.66-23.19,151-51.28l4.28-5.63L617.43,577.06a2.72,2.72,0,0,0-2.58-1.85H524.66a2.69,2.69,0,0,1-2.64-2,62.84,62.84,0,0,1-1.77-14.9V412a2.72,2.72,0,0,1,2.72-2.72H629.08a2.72,2.72,0,0,0,2.72-2.72V256.84a2.72,2.72,0,0,0-2.72-2.72H523.43a2.72,2.72,0,0,1-2.72-2.72V105.47a2.72,2.72,0,0,0-2.72-2.72H332.7a31.47,31.47,0,0,0-30.78,28C292.67,206.12,258.12,251.31,193.2,273L186,275.42A2.72,2.72,0,0,0,184.1,278V406.56a2.72,2.72,0,0,0,2.72,2.72h66.31s0,120,0,158.33C253.12,694,340.67,753.62,502.52,753.62Zm124.1-61.09c-20.32,19.54-62,34.06-102,34.73-1.51,0-3,0-4.48,0h0c-131.49,0-166.58-100.38-166.58-159.7V385.35a2.72,2.72,0,0,0-2.72-2.72H287.23a2.72,2.72,0,0,1-2.72-2.72v-83a2.7,2.7,0,0,1,1.73-2.5c68-26.45,105.91-79,115.89-160.33.56-4.52,4.28-4.64,4.32-4.64h84.88a2.72,2.72,0,0,1,2.72,2.72V278.05a2.72,2.72,0,0,0,2.72,2.72H602.43a2.72,2.72,0,0,1,2.72,2.72v96.4a2.72,2.72,0,0,1-2.72,2.72H496.32a2.72,2.72,0,0,0-2.72,2.72V558.56c.62,39,19.5,58.77,56.1,58.77,14.75,0,31.64-3.43,47.07-9.32a2.68,2.68,0,0,1,3.53,1.64l27,80A2.74,2.74,0,0,1,626.62,692.53Z" transform="translate(-184.1 -102.75)"/></svg>